<svg width="18" height="18" viewBox="0 0 18 18" fill="none" xmlns="http://www.w3.org/2000/svg">
<g id="Menu">
<path id="Vector" d="M3.90684 0C4.35193 0.152124 4.5172 0.469519 4.50968 0.929647C4.49231 1.84239 4.50499 2.75561 4.50405 3.66882C4.50405 4.19327 4.20028 4.49799 3.67725 4.49846C2.72885 4.49846 1.7806 4.49846 0.832514 4.49846C0.309015 4.49799 0.00665295 4.19374 0.00618344 3.66882C0.00524443 2.75561 0.0183906 1.84239 0.000549374 0.929647C-0.00790173 0.466702 0.158303 0.151655 0.603395 0H3.90684Z" fill="#1FA62D"/>
<path id="Vector_2" d="M10.6547 0C11.0993 0.152124 11.2651 0.469519 11.2575 0.929647C11.2402 1.84239 11.2528 2.75561 11.2519 3.66882C11.2519 4.19327 10.9481 4.49799 10.4251 4.49846C9.4767 4.49846 8.52846 4.49846 7.58037 4.49846C7.05687 4.49846 6.75451 4.19374 6.75404 3.66882C6.75404 2.75561 6.76625 1.84239 6.74887 0.929647C6.73995 0.466702 6.90616 0.151655 7.35125 0L10.6547 0Z" fill="#1FA62D"/>
<path id="Vector_3" d="M17.9999 3.90123C17.8469 4.34493 17.5328 4.51161 17.0698 4.50363C16.1567 4.48625 15.243 4.4994 14.3298 4.49846C13.8054 4.49846 13.5021 4.19421 13.5016 3.66976C13.5016 2.75655 13.5138 1.84286 13.4964 0.929648C13.4875 0.466702 13.6537 0.151655 14.0988 0H17.4023C17.5439 0.0417157 17.6728 0.118284 17.7772 0.222699C17.8817 0.327115 17.9582 0.456046 17.9999 0.597698V3.90123Z" fill="#1FA62D"/>
<path id="Vector_4" d="M18.0003 10.6492C17.8472 11.0924 17.5336 11.2595 17.0702 11.2516C16.1575 11.2342 15.2443 11.2469 14.3311 11.2464C13.8062 11.2464 13.5024 10.9426 13.502 10.4191C13.502 9.4713 13.502 8.52303 13.502 7.57429C13.502 7.0503 13.8057 6.7484 14.3316 6.74793C15.2448 6.74793 16.1579 6.76014 17.0707 6.74277C17.5336 6.73385 17.8477 6.90147 18.0003 7.34516V10.6492Z" fill="#1FA62D"/>
<path id="Vector_5" d="M18.0003 17.3971C17.8472 17.8403 17.5336 18.0075 17.0702 17.9995C16.1575 17.9821 15.2443 17.9948 14.3311 17.9943C13.8062 17.9943 13.5024 17.6905 13.502 17.167C13.502 16.2186 13.502 15.2703 13.502 14.3222C13.502 13.7982 13.8057 13.4963 14.3316 13.4959C15.2448 13.4959 16.1579 13.5081 17.0707 13.4907C17.5336 13.4818 17.8477 13.6494 18.0003 14.0931V17.3971Z" fill="#1FA62D"/>
<path id="Vector_6" d="M4.50528 9.01472C4.50528 9.49504 4.50528 9.97536 4.50528 10.4552C4.50528 10.9351 4.18884 11.2449 3.70712 11.2459C2.73681 11.2478 1.76478 11.2478 0.791023 11.2459C0.321518 11.2459 0.00694865 10.9294 0.00554013 10.4637C0.0030361 9.4855 0.0030361 8.50749 0.00554013 7.52964C0.00554013 7.0634 0.323396 6.74977 0.791963 6.74836C1.7701 6.74648 2.74792 6.74648 3.72544 6.74836C4.18179 6.74836 4.49918 7.06575 4.50247 7.52119C4.50857 8.01934 4.50528 8.51703 4.50528 9.01472Z" fill="#1FA62D"/>
<path id="Vector_7" d="M9.00823 6.74795C9.48806 6.74795 9.96837 6.74795 10.4487 6.74795C10.9393 6.74795 11.2515 7.05877 11.2525 7.54613C11.2525 8.5124 11.2525 9.47852 11.2525 10.4445C11.2525 10.9328 10.9384 11.2427 10.4482 11.2427C9.48196 11.2427 8.51572 11.2427 7.54947 11.2427C7.07058 11.2427 6.75601 10.9285 6.75507 10.4515C6.75319 9.48118 6.75319 8.50912 6.75507 7.53533C6.75507 7.0583 7.07011 6.74701 7.54994 6.74513C8.02978 6.74326 8.52182 6.74795 9.00823 6.74795Z" fill="#1FA62D"/>
<path id="Vector_8" d="M2.2614 13.4958C2.74124 13.4958 3.22154 13.4958 3.70185 13.4958C4.19201 13.4958 4.50376 13.8071 4.5047 14.2964C4.5047 15.2626 4.5047 16.2288 4.5047 17.1947C4.5047 17.6825 4.19013 17.9929 3.6995 17.9929C2.73889 17.9929 1.77859 17.9929 0.818611 17.9929C0.31671 17.9934 0.00777495 17.6849 0.00683594 17.1844C0.00683594 16.2237 0.00683594 15.2634 0.00683594 14.3034C0.00683594 13.8034 0.317179 13.4972 0.820959 13.4958C1.30079 13.4949 1.7811 13.4958 2.2614 13.4958Z" fill="#1FA62D"/>
<path id="Vector_9" d="M9.0087 13.4958C9.489 13.4958 9.96931 13.4958 10.4491 13.4958C10.9393 13.4958 11.2515 13.8071 11.2525 14.294C11.2525 15.2603 11.2525 16.2265 11.2525 17.1928C11.2525 17.6802 10.9379 17.991 10.4473 17.991C9.48102 17.991 8.51493 17.991 7.549 17.991C7.07011 17.991 6.75601 17.6764 6.75507 17.1989C6.75319 16.2286 6.75319 15.2567 6.75507 14.2832C6.75507 13.8057 7.07058 13.4953 7.55323 13.4935C8.03588 13.4916 8.52276 13.4958 9.0087 13.4958Z" fill="#1FA62D"/>
</g>
</svg>
