<svg width="21" height="20" viewBox="0 0 21 20" fill="none" xmlns="http://www.w3.org/2000/svg">
<g id="Profile">
<path id="Vector" d="M9.3996 0C9.81628 0 10.233 0 10.6496 0C10.6996 0.0109378 10.7491 0.0281257 10.8002 0.0317716C12.3023 0.144795 13.7143 0.564598 15.0086 1.33441C17.668 2.91622 19.2988 5.22982 19.8717 8.27677C19.94 8.6398 19.9749 9.00908 20.0254 9.37524C20.0254 9.79191 20.0254 10.2086 20.0254 10.6253C20.0139 10.682 19.9957 10.7383 19.9915 10.7956C19.9358 11.5649 19.7879 12.3165 19.5493 13.0488C18.0061 17.7817 13.3528 20.6526 8.43916 19.8713C5.93441 19.4734 3.86092 18.2713 2.26661 16.2978C0.466046 14.0696 -0.242826 11.5071 0.115517 8.66793C0.366044 6.67934 1.1744 4.92304 2.50151 3.41884C4.05832 1.65473 5.99744 0.555743 8.32093 0.151045C8.67823 0.0885439 9.0397 0.0494804 9.3996 0ZM16.0748 14.9973C12.721 10.9675 6.77714 11.4248 3.98384 15.0124C7.14903 18.8427 12.9945 18.7677 16.0748 14.9973ZM13.5929 7.15226C13.5997 5.17565 12.0012 3.57092 10.0246 3.57092C8.05634 3.57092 6.46359 5.16003 6.4563 7.13247C6.44901 9.10283 8.0329 10.7003 10.0048 10.7102C11.9872 10.7206 13.5862 9.13513 13.5929 7.15226Z" fill="#E6E6E6"/>
</g>
</svg>
